<svg width="35" height="39" viewBox="0 0 35 39" fill="none" xmlns="http://www.w3.org/2000/svg">
<path d="M6.79235 36.0768C7.03493 35.9566 7.19019 35.7114 7.19019 35.4422C7.19019 35.173 7.03493 34.9278 6.79235 34.8076L1.03826 31.9518C0.815081 31.8413 0.553091 31.8557 0.339617 31.9855C0.126143 32.1153 -2.90853e-07 32.3461 -2.80135e-07 32.5912L-3.11084e-08 38.2883C-2.03908e-08 38.5335 0.130995 38.7643 0.339617 38.8941C0.553091 39.0239 0.815082 39.0335 1.03826 38.9277L6.79235 36.0768ZM1.4361 33.7403L4.86623 35.4374L1.4361 37.1345L1.4361 33.7403ZM21.0951 35.4374C21.0951 34.4903 20.7167 33.5864 20.0423 32.9182C19.3679 32.2499 18.4509 31.8749 17.5 31.8749C16.5491 31.8749 15.6321 32.2499 14.9577 32.9182C14.2833 33.5864 13.9049 34.4951 13.9049 35.4374C13.9049 36.3797 14.2833 37.2883 14.9577 37.9566C15.6321 38.6249 16.5491 38.9999 17.5 38.9999C18.4509 38.9999 19.3679 38.6249 20.0423 37.9566C20.7167 37.2883 21.0951 36.3845 21.0951 35.4374ZM15.341 35.4374C15.341 34.8701 15.569 34.3268 15.9717 33.923C16.3744 33.5239 16.9275 33.298 17.5 33.298C18.0725 33.298 18.6207 33.5239 19.0283 33.923C19.431 34.322 19.659 34.8701 19.659 35.4374C19.659 36.0047 19.431 36.5479 19.0283 36.9518C18.6256 37.3508 18.0725 37.5768 17.5 37.5768C16.9275 37.5768 16.3793 37.3508 15.9717 36.9518C15.569 36.5528 15.341 36.0047 15.341 35.4374ZM35 38.2883L35 32.5864C35 32.1922 34.6798 31.8749 34.282 31.8749L28.5279 31.8749C28.13 31.8749 27.8098 32.1922 27.8098 32.5864L27.8098 38.2883C27.8098 38.6825 28.13 38.9999 28.5279 38.9999L34.282 38.9999C34.6798 38.9999 35 38.6825 35 38.2883ZM29.2459 37.5768L29.2459 33.298L33.5639 33.298L33.5639 37.5768L29.2459 37.5768ZM30.6869 26.173L18.218 26.173L18.218 30.2115C18.218 30.6057 17.8978 30.923 17.5 30.923C17.1022 30.923 16.782 30.6057 16.782 30.2115L16.782 26.173L4.31314 26.173L4.31314 30.2115C4.31314 30.6057 3.99293 30.923 3.59509 30.923C3.19726 30.923 2.87704 30.6057 2.87704 30.2115L2.87704 25.4615C2.87704 25.0673 3.19725 24.75 3.59509 24.75L16.782 24.75L16.782 20.7115C16.782 20.3173 17.1022 20 17.5 20C17.8978 20 18.218 20.3173 18.218 20.7115L18.218 24.75L31.4049 24.75C31.8027 24.75 32.123 25.0673 32.123 25.4615L32.123 30.2115C32.123 30.6057 31.8027 30.923 31.4049 30.923C31.0071 30.923 30.6869 30.6057 30.6869 30.2115L30.6869 26.173Z" fill="white"/>
<path d="M17.9898 17.6701C16.2759 17.6701 14.7418 17.2919 13.3792 16.527C12.0252 15.7621 10.9539 14.7136 10.1741 13.3729C9.39422 12.0322 9 10.511 9 8.81785C9 7.12476 9.39422 5.57776 10.1741 4.26282C10.9539 2.94788 12.0166 1.90796 13.3621 1.14306C14.7076 0.378154 16.2501 0 17.9898 0C19.7295 0 21.2378 0.378153 22.6005 1.12587C23.9545 1.87358 25.0172 2.9135 25.7885 4.24563C26.5598 5.57776 26.9454 7.09897 26.9454 8.81785C26.9454 10.5367 26.5598 12.0579 25.7885 13.3901C25.0172 14.7222 23.9545 15.7621 22.6005 16.527C21.2464 17.2919 19.7038 17.6701 17.9898 17.6701ZM17.9898 14.9285C19.0954 14.9285 20.0895 14.6792 20.9722 14.1808C21.8549 13.6823 22.5405 12.9689 23.0375 12.0408C23.5346 11.1126 23.7831 10.0469 23.7831 8.82645C23.7831 7.60604 23.5346 6.51455 23.0375 5.61214C22.5405 4.70973 21.8463 4.00499 20.9722 3.50652C20.0895 3.00804 19.0954 2.7588 17.9898 2.7588C16.8843 2.7588 15.8988 3.00804 15.0246 3.50652C14.1591 4.00499 13.4649 4.70973 12.9422 5.61214C12.4194 6.51455 12.1623 7.58885 12.1623 8.82645C12.1623 10.064 12.4194 11.1212 12.9422 12.0408C13.4649 12.9689 14.1591 13.6823 15.0246 14.1808C15.8902 14.6792 16.8843 14.9285 17.9898 14.9285Z" fill="white"/>
</svg>
