<svg width="163" height="63" viewBox="0 0 163 63" fill="none" xmlns="http://www.w3.org/2000/svg">
<path d="M51.0683 40.46C49.3544 40.46 47.8203 40.0757 46.4577 39.2985C45.1037 38.5212 44.0324 37.4558 43.2526 36.0935C42.4727 34.7311 42.0785 33.1854 42.0785 31.465C42.0785 29.7446 42.4727 28.1726 43.2526 26.8365C44.0324 25.5003 45.0951 24.4436 46.4406 23.6664C47.7861 22.8891 49.3286 22.5049 51.0683 22.5049C52.808 22.5049 54.3163 22.8891 55.6789 23.6489C57.033 24.4087 58.0957 25.4654 58.867 26.819C59.6382 28.1726 60.0239 29.7184 60.0239 31.465C60.0239 33.2116 59.6382 34.7573 58.867 36.1109C58.0957 37.4645 57.033 38.5212 55.6789 39.2985C54.3249 40.0757 52.7823 40.46 51.0683 40.46ZM51.0683 37.6741C52.1739 37.6741 53.168 37.4209 54.0507 36.9144C54.9334 36.4078 55.619 35.683 56.116 34.7398C56.6131 33.7967 56.8616 32.7138 56.8616 31.4737C56.8616 30.2336 56.6131 29.1245 56.116 28.2075C55.619 27.2906 54.9248 26.5745 54.0507 26.068C53.168 25.5614 52.1739 25.3082 51.0683 25.3082C49.9628 25.3082 48.9773 25.5614 48.1031 26.068C47.2376 26.5745 46.5434 27.2906 46.0207 28.2075C45.4979 29.1245 45.2408 30.2161 45.2408 31.4737C45.2408 32.7312 45.4979 33.8054 46.0207 34.7398C46.5434 35.683 47.2376 36.4078 48.1031 36.9144C48.9687 37.4209 49.9628 37.6741 51.0683 37.6741Z" fill="white"/>
<path d="M65.3972 40.2591V22.6708H68.3967V27.4478L68.1053 26.2513C68.5853 25.0375 69.3823 24.103 70.5135 23.4655C71.6447 22.828 73.033 22.5049 74.6785 22.5049V25.5876C74.5499 25.5702 74.4214 25.5527 74.3014 25.5527H73.9586C72.2875 25.5527 70.9591 26.0592 69.9821 27.081C69.0052 28.1027 68.5167 29.5699 68.5167 31.4912V40.2504H65.3887L65.3972 40.2591Z" fill="white"/>
<path d="M86.5649 39.5343C84.8937 39.5343 83.4026 39.1763 82.0828 38.4602C80.763 37.7441 79.7261 36.7398 78.9548 35.456C78.1835 34.1723 77.7979 32.6876 77.7979 31.0109C77.7979 29.3342 78.1835 27.8233 78.9548 26.5483C79.7261 25.2733 80.7716 24.2865 82.0828 23.5791C83.394 22.8717 84.8852 22.5137 86.5649 22.5137C88.0389 22.5137 89.3844 22.8193 90.6013 23.4219C91.8182 24.0332 92.7866 24.9677 93.5151 26.2252C94.2435 27.4828 94.6035 29.0809 94.6035 31.0022C94.6035 32.9234 94.2435 34.4866 93.5151 35.7442C92.7866 37.0018 91.8182 37.9537 90.6013 38.5824C89.3844 39.2112 88.0389 39.5256 86.5649 39.5256V39.5343ZM86.9591 46.905C85.3737 46.905 83.8396 46.6779 82.3485 46.2238C80.8573 45.7697 79.649 45.1235 78.7148 44.2851L80.2146 41.8311C81.0201 42.5385 82.0057 43.0974 83.1798 43.5078C84.3538 43.9183 85.5793 44.1192 86.8563 44.1192C88.8959 44.1192 90.3956 43.6301 91.3469 42.6607C92.2981 41.6914 92.7781 40.2068 92.7781 38.2156V34.4954L93.1037 31.0109L92.9409 27.4915V22.6796H95.9061V37.8751C95.9061 40.9753 95.1434 43.2546 93.6265 44.713C92.1096 46.1714 89.8814 46.905 86.9505 46.905H86.9591ZM86.9248 36.7485C88.0732 36.7485 89.093 36.504 89.9843 36.0149C90.8755 35.5259 91.5783 34.8534 92.0839 33.9889C92.5981 33.1243 92.8466 32.1287 92.8466 31.0022C92.8466 29.8756 92.5895 28.88 92.0839 28.0155C91.5783 27.1509 90.8755 26.4872 89.9843 26.0069C89.093 25.5353 88.0732 25.2908 86.9248 25.2908C85.7764 25.2908 84.7481 25.5266 83.8482 26.0069C82.9484 26.4785 82.2371 27.1509 81.7314 28.0155C81.2258 28.88 80.9687 29.8756 80.9687 31.0022C80.9687 32.1287 81.2258 33.1243 81.7314 33.9889C82.2456 34.8534 82.9484 35.5259 83.8482 36.0149C84.7481 36.504 85.7764 36.7485 86.9248 36.7485Z" fill="white"/>
<path d="M5.21076 12.2262C5.42501 12.6629 5.86208 12.9423 6.34199 12.9423C6.82191 12.9423 7.25897 12.6629 7.47322 12.2262L12.5638 1.86887C12.7609 1.46715 12.7351 0.995564 12.5038 0.611311C12.2724 0.227059 11.861 0 11.424 0H1.26861C0.83154 0 0.420183 0.235792 0.188796 0.611311C-0.0425919 0.995564 -0.0597317 1.46715 0.128806 1.86887L5.21076 12.2262ZM9.37574 2.58497L6.35056 8.75922L3.32538 2.58497H9.37574ZM6.35056 37.9712C8.03884 37.9712 9.64998 37.29 10.8412 36.0761C12.0324 34.8622 12.7009 33.2117 12.7009 31.5C12.7009 29.7883 12.0324 28.1378 10.8412 26.9239C9.64998 25.71 8.03027 25.0288 6.35056 25.0288C4.67086 25.0288 3.05115 25.71 1.85993 26.9239C0.668711 28.1378 0.00025786 29.7883 0.00025786 31.5C0.00025786 33.2117 0.668711 34.8622 1.85993 36.0761C3.05115 37.29 4.66229 37.9712 6.35056 37.9712ZM6.35056 27.6138C7.36181 27.6138 8.33021 28.0243 9.05009 28.7491C9.76139 29.4739 10.1642 30.4695 10.1642 31.5C10.1642 32.5305 9.76139 33.5173 9.05009 34.2509C8.33878 34.9757 7.36181 35.3862 6.35056 35.3862C5.33931 35.3862 4.37091 34.9757 3.65104 34.2509C2.93974 33.5261 2.53695 32.5305 2.53695 31.5C2.53695 30.4695 2.93974 29.4827 3.65104 28.7491C4.36234 28.0243 5.33931 27.6138 6.35056 27.6138ZM1.26861 63H11.4325C12.1353 63 12.7009 62.4236 12.7009 61.7075V51.3502C12.7009 50.634 12.1353 50.0577 11.4325 50.0577H1.26861C0.565872 50.0577 0.00025786 50.634 0.00025786 51.3502V61.7075C0.00025786 62.4236 0.565872 63 1.26861 63ZM2.53695 52.6426H10.1642V60.415H2.53695V52.6426ZM22.8648 55.2363V32.7925H15.6661C14.9633 32.7925 14.3977 32.2161 14.3977 31.5C14.3977 30.7839 14.9633 30.2075 15.6661 30.2075H22.8648V7.76365H15.6661C14.9633 7.76365 14.3977 7.18727 14.3977 6.47117C14.3977 5.75506 14.9633 5.17868 15.6661 5.17868H24.1331C24.8359 5.17868 25.4015 5.75506 25.4015 6.47117V30.2075H32.6002C33.3029 30.2075 33.8686 30.7839 33.8686 31.5C33.8686 32.2161 33.3029 32.7925 32.6002 32.7925H25.4015V56.5288C25.4015 57.2449 24.8359 57.8213 24.1331 57.8213H15.6661C14.9633 57.8213 14.3977 57.2449 14.3977 56.5288C14.3977 55.8127 14.9633 55.2363 15.6661 55.2363H22.8648Z" fill="white"/>
</svg>
